<svg width="300" height="300" viewBox="0 0 300 300" fill="none" xmlns="http://www.w3.org/2000/svg">
<g opacity="0.1">
<path d="M185.714 150C185.714 169.724 169.724 185.714 150 185.714C130.276 185.714 114.286 169.724 114.286 150C114.286 130.276 130.276 114.286 150 114.286C169.724 114.286 185.714 130.276 185.714 150Z" fill="white"/>
<path fill-rule="evenodd" clip-rule="evenodd" d="M150 300C225.567 300 288.083 244.121 298.481 171.429H210.628C201.803 196.397 177.99 214.286 150 214.286C122.01 214.286 98.1973 196.397 89.3723 171.429H1.51905C11.9168 244.121 74.4327 300 150 300ZM89.3723 128.571H1.51905C11.9168 55.8794 74.4327 0 150 0C225.567 0 288.083 55.8794 298.481 128.571H210.628C201.803 103.603 177.99 85.7143 150 85.7143C122.01 85.7143 98.1973 103.603 89.3723 128.571ZM185.714 150C185.714 169.724 169.724 185.714 150 185.714C130.276 185.714 114.286 169.724 114.286 150C114.286 130.276 130.276 114.286 150 114.286C169.724 114.286 185.714 130.276 185.714 150Z" fill="white"/>
</g>
</svg>
